<svg width="50" height="50" version="1.1" xmlns="http://www.w3.org/2000/svg"><path fill="rgb(245,189,75)" stroke="rgb(245,189,75)" stroke-width="1" opacity="1" d="M 0 0 L 28 0.5 L 22.5 10 Q 15.3 8.8 14 13.5 L 13.5 20 L 10.5 19 L 0 21 Q -1.3 16.4 1.5 15 Q 7.6 16.1 10 13.5 L 8.5 12 L 0 11 L 0 0 Z "></path><path fill="rgb(245,189,75)" stroke="rgb(245,189,75)" stroke-width="1" opacity="1" d="M 19.5 15 L 20.5 17 Q 17.7 17.7 19.5 15 Z "></path><path fill="rgb(245,189,75)" stroke="rgb(245,189,75)" stroke-width="1" opacity="1" d="M 0 22 Q 5 24.1 14 23 L 13.5 28 L 12.5 26 Q 9.6 28.6 3.5 28 L 0 27 L 0 22 Z "></path><path fill="rgb(47,51,61)" stroke="rgb(47,51,61)" stroke-width="1" opacity="1" d="M 34.5 16 L 35 23.5 L 33.5 26 L 31.5 26 L 29 23.5 L 32.5 18 L 33.5 20 L 34.5 16 Z "></path><path fill="rgb(47,51,61)" stroke="rgb(47,51,61)" stroke-width="1" opacity="1" d="M 14.5 18 L 15 35.5 L 14 35.5 L 14.5 18 Z "></path><path fill="rgb(47,51,61)" stroke="rgb(47,51,61)" stroke-width="1" opacity="1" d="M 23.5 18 L 24.5 20 Q 21.7 20.7 23.5 18 Z "></path><path fill="rgb(47,51,61)" stroke="rgb(47,51,61)" stroke-width="1" opacity="1" d="M 23.5 21 L 23 22.5 L 22.5 24 L 22 22.5 L 23.5 21 Z "></path><path fill="rgb(47,51,61)" stroke="rgb(47,51,61)" stroke-width="1" opacity="1" d="M 17.5 23 L 19 31.5 L 18 31.5 L 17.5 27 L 16.5 29 L 16 24.5 L 17.5 23 Z "></path><path fill="rgb(47,51,61)" stroke="rgb(47,51,61)" stroke-width="1" opacity="1" d="M 17.5 39 L 32 39.5 L 17.5 40 L 17.5 39 Z "></path><path fill="rgb(22,21,26)" stroke="rgb(22,21,26)" stroke-width="1" opacity="1" d="M 19.5 10 L 31.5 10 L 33 11.5 L 31.5 11 L 19.5 11 L 19.5 10 Z "></path><path fill="rgb(22,21,26)" stroke="rgb(22,21,26)" stroke-width="1" opacity="1" d="M 15.5 14 L 16.5 29 L 17.5 27 Q 16.6 32.4 19.5 34 L 22 34 Q 21 31 24 32 L 24 29.5 L 25 29.5 L 28.5 35 L 34 34.5 L 32.5 31 L 31 30.5 Q 33.3 29.3 30.5 28 Q 27.9 28.8 29 25.5 L 28 22.5 L 32 19.5 L 29 23.5 L 31.5 26 L 34 25.5 L 34.5 24 L 35 35.5 L 32.5 39 L 16.5 39 L 15 37.5 L 15.5 14 Z "></path><path fill="rgb(181,37,150)" stroke="rgb(181,37,150)" stroke-width="1" opacity="1" d="M 46 0 L 50 0.5 L 50 17 L 38 12 L 46 0 Z "></path><path fill="rgb(181,37,150)" stroke="rgb(181,37,150)" stroke-width="1" opacity="1" d="M 19.5 40 L 21.5 40 L 31 40.5 L 21.5 41 L 20 42.5 L 21 46.5 L 18.5 50 Q 12.7 52.1 14 47.5 L 16.5 41 L 19.5 40 Z "></path><path fill="rgb(240,139,60)" stroke="rgb(240,139,60)" stroke-width="1" opacity="1" d="M 0 11 L 8.5 12 L 11 14.5 L 9.5 14 L 0.5 16 L 0 11 Z "></path><path fill="rgb(240,139,60)" stroke="rgb(240,139,60)" stroke-width="1" opacity="1" d="M 21.5 16 L 23 19.5 L 22 19.5 L 21.5 16 Z "></path><path fill="rgb(240,139,60)" stroke="rgb(240,139,60)" stroke-width="1" opacity="1" d="M 10.5 19 L 14 20.5 Q 15.1 23.8 12.5 23 L 10.5 22 L 9.5 23 L 3 23 L 3 20 L 9.5 20 L 10.5 19 Z "></path><path fill="rgb(240,139,60)" stroke="rgb(240,139,60)" stroke-width="1" opacity="1" d="M 12.5 26 L 14 30.5 L 13 30.5 L 12.5 29 L 6.5 33 L 1.5 34 Q -1.5 32.4 0 27 L 7.5 28 L 12.5 26 Z "></path><path fill="rgb(231,159,205)" stroke="rgb(231,159,205)" stroke-width="1" opacity="1" d="M 28.5 0 L 37 0.5 L 29.5 10 L 23 9.5 L 28.5 0 Z "></path><path fill="rgb(231,159,205)" stroke="rgb(231,159,205)" stroke-width="1" opacity="1" d="M 31.5 16 L 25.5 23 Q 23.3 22.3 24 24.5 L 23 24.5 L 26.5 20 L 31.5 16 Z "></path><path fill="rgb(231,159,205)" stroke="rgb(231,159,205)" stroke-width="1" opacity="1" d="M 19 17 L 22 17 L 22 24 L 19.5 25 L 19 17 Z "></path><path fill="rgb(231,159,205)" stroke="rgb(231,159,205)" stroke-width="1" opacity="1" d="M 25.5 24 L 26.5 26 L 25.5 24 Z "></path><path fill="rgb(5,10,8)" stroke="rgb(5,10,8)" stroke-width="1" opacity="1" d="M 33.5 11 L 34.5 13 L 33.5 11 Z "></path><path fill="rgb(5,10,8)" stroke="rgb(5,10,8)" stroke-width="1" opacity="1" d="M 35.5 14 L 36 35.5 L 33.5 39 L 34 37.5 L 35 35.5 L 35.5 14 Z "></path><path fill="rgb(5,10,8)" stroke="rgb(5,10,8)" stroke-width="1" opacity="1" d="M 27.5 23 L 29 25.5 L 27 24.5 L 27.5 23 Z "></path><path fill="rgb(5,10,8)" stroke="rgb(5,10,8)" stroke-width="1" opacity="1" d="M 23.5 27 Q 26.2 28.3 24 29.5 L 23.5 32 L 23.5 27 Z "></path><path fill="rgb(5,10,8)" stroke="rgb(5,10,8)" stroke-width="1" opacity="1" d="M 30.5 28 L 31.5 30 L 30.5 28 Z "></path><path fill="rgb(5,10,8)" stroke="rgb(5,10,8)" stroke-width="1" opacity="1" d="M 25.5 30 L 28 34 L 34 34.5 L 28.5 35 L 25.5 30 Z "></path><path fill="rgb(5,10,8)" stroke="rgb(5,10,8)" stroke-width="1" opacity="1" d="M 32.5 31 L 33.5 33 L 32.5 31 Z "></path><path fill="rgb(5,10,8)" stroke="rgb(5,10,8)" stroke-width="1" opacity="1" d="M 18.5 32 L 22 33.5 L 19.5 34 L 18.5 32 Z "></path><path fill="rgb(161,57,193)" stroke="rgb(161,57,193)" stroke-width="1" opacity="1" d="M 39.5 12 L 40.5 14 Q 42 11.5 43.5 15 L 45.5 16 L 47 15.5 L 40.5 23 Q 37.9 22.2 39 25.5 L 37 27.5 L 36.5 37 L 36 13 L 39.5 12 Z M 43 16 L 42 18 L 44 17 L 43 16 Z M 38 17 L 38 26 L 39 23 L 38 17 Z "></path><path fill="rgb(161,57,193)" stroke="rgb(161,57,193)" stroke-width="1" opacity="1" d="M 20.5 42 Q 25 41 26 43.5 L 27 49.5 L 24.5 50 L 19 49.5 Q 21.6 48.1 21 43.5 L 20.5 42 Z "></path><path fill="rgb(243,111,79)" stroke="rgb(243,111,79)" stroke-width="1" opacity="1" d="M 12.5 29 Q 14.8 30.8 14 35.5 L 9.5 39 L 0.5 42 L 0 33.5 L 1.5 34 L 6.5 33 L 12.5 29 Z "></path><path fill="rgb(243,111,79)" stroke="rgb(243,111,79)" stroke-width="1" opacity="1" d="M 19.5 30 L 20.5 32 Q 17.7 32.7 19.5 30 Z "></path><path fill="rgb(245,38,136)" stroke="rgb(245,38,136)" stroke-width="1" opacity="1" d="M 19 27 Q 23.9 25.2 22 31.5 L 19 29.5 L 19 27 Z "></path><path fill="rgb(245,38,136)" stroke="rgb(245,38,136)" stroke-width="1" opacity="1" d="M 27.5 27 L 32 32.5 L 28 33 L 26 29.5 L 28 28.5 L 27.5 27 Z "></path><path fill="rgb(233,55,171)" stroke="rgb(233,55,171)" stroke-width="1" opacity="1" d="M 37.5 0 L 45.5 0 L 46 1.5 L 36.5 13 L 33.5 11 L 30 9.5 L 37.5 0 Z "></path><path fill="rgb(233,55,171)" stroke="rgb(233,55,171)" stroke-width="1" opacity="1" d="M 20.5 24 L 23.5 25 Q 25 22.5 26.5 26 L 28 26.5 L 27.5 29 L 23.5 26 L 19 27 L 20.5 24 Z "></path><path fill="rgb(145,49,186)" stroke="rgb(145,49,186)" stroke-width="1" opacity="1" d="M 49.5 17 L 50 33.5 L 49 33.5 L 49.5 17 Z "></path><path fill="rgb(145,49,186)" stroke="rgb(145,49,186)" stroke-width="1" opacity="1" d="M 44.5 19 L 41.5 23 L 44.5 19 Z "></path><path fill="rgb(145,49,186)" stroke="rgb(145,49,186)" stroke-width="1" opacity="1" d="M 47.5 22 L 45.5 25 L 47.5 22 Z "></path><path fill="rgb(145,49,186)" stroke="rgb(145,49,186)" stroke-width="1" opacity="1" d="M 40.5 24 L 38.5 27 L 40.5 24 Z "></path><path fill="rgb(145,49,186)" stroke="rgb(145,49,186)" stroke-width="1" opacity="1" d="M 37.5 28 L 39.5 33 L 41 32.5 L 39.5 35 L 38.5 33 L 38 38.5 L 39 38.5 L 39.5 36 L 40 40 L 37.5 39 L 31.5 43 L 30.5 42 L 21.5 42 L 20 40.5 L 21.5 41 L 30.5 41 L 37 36.5 L 37.5 28 Z "></path><path fill="rgb(145,49,186)" stroke="rgb(145,49,186)" stroke-width="1" opacity="1" d="M 47.5 35 L 48 39 L 46 38.5 L 47.5 35 Z "></path><path fill="rgb(145,49,186)" stroke="rgb(145,49,186)" stroke-width="1" opacity="1" d="M 49.5 35 L 50 50 L 47.5 49 L 44.5 50 L 42.5 50 L 39 49.5 L 42.5 44 L 42 45.5 L 41 47.5 Q 42.8 50.8 44.5 47 L 48.5 48 L 49.5 35 Z "></path><path fill="rgb(145,49,186)" stroke="rgb(145,49,186)" stroke-width="1" opacity="1" d="M 45.5 40 L 48 40.5 L 45.5 44 L 47.5 43 L 47.5 46 L 43 42.5 L 45.5 40 Z "></path><path fill="rgb(145,49,186)" stroke="rgb(145,49,186)" stroke-width="1" opacity="1" d="M 33.5 45 L 35 47.5 L 34 47.5 L 33.5 45 Z "></path><path fill="rgb(145,49,186)" stroke="rgb(145,49,186)" stroke-width="1" opacity="1" d="M 31.5 46 Q 34.3 47.3 32 48.5 L 32 50 L 27 50 Q 25.3 45.5 30.5 47 L 31.5 46 Z "></path><path fill="rgb(221,66,102)" stroke="rgb(221,66,102)" stroke-width="1" opacity="1" d="M 13.5 36 L 15 36.5 L 14.5 38 L 19 40.5 L 15 42.5 L 14 50 L 0 50 L 0 42.5 L 9.5 39 L 13.5 36 Z "></path><path fill="rgb(64,95,95)" stroke="rgb(64,95,95)" stroke-width="1" opacity="1" d="M 17.5 10 L 18.5 11 L 32 11.5 L 18.5 12 L 17.5 10 Z "></path><path fill="rgb(64,95,95)" stroke="rgb(64,95,95)" stroke-width="1" opacity="1" d="M 32.5 14 L 30.5 17 L 29 16.5 L 32.5 14 Z "></path><path fill="rgb(64,95,95)" stroke="rgb(64,95,95)" stroke-width="1" opacity="1" d="M 22.5 16 L 27 17.5 L 24.5 21 L 25 19.5 L 22.5 16 Z "></path><path fill="rgb(64,95,95)" stroke="rgb(64,95,95)" stroke-width="1" opacity="1" d="M 33.5 17 L 34 19.5 L 33 19.5 L 33.5 17 Z "></path><path fill="rgb(64,95,95)" stroke="rgb(64,95,95)" stroke-width="1" opacity="1" d="M 17.5 18 Q 20.8 19.8 19 26.5 L 18 26.5 L 17.5 23 L 16 23.5 L 17.5 18 Z "></path><path fill="rgb(64,95,95)" stroke="rgb(64,95,95)" stroke-width="1" opacity="1" d="M 19.5 32 L 22 32.5 L 19.5 33 L 19.5 32 Z "></path><path fill="rgb(59,166,151)" stroke="rgb(59,166,151)" stroke-width="1" opacity="1" d="M 17.5 12 L 32.5 12 L 34 13.5 L 34 16.5 L 27.5 23 L 27 21.5 L 27.5 20 L 24.5 22 L 26 19.5 L 27 17.5 L 19 15 L 18.5 19 L 17 18.5 L 16.5 20 L 16 13.5 L 17.5 12 Z M 32 15 L 29 17 Q 31 20 32 17 L 32 15 Z "></path><path fill="rgb(149,52,191)" stroke="rgb(149,52,191)" stroke-width="1" opacity="1" d="M 45.5 15 L 49 17.5 L 49 33.5 L 50 34.5 L 49 35.5 L 48.5 48 L 44.5 47 L 43.5 50 L 40 47.5 L 38.5 50 L 35.5 49 L 32 50 L 30.5 47 Q 26.8 47.8 26 45.5 L 25 42.5 L 30.5 42 L 32.5 42 L 38 38.5 L 39 30.5 L 37 27.5 L 40 25.5 L 38.5 23 L 37.5 26 L 37 17.5 L 38 17.5 L 38.5 19 L 43.5 16 L 42.5 18 L 39 19 Q 36.9 24.2 41.5 23 Q 44.3 21.8 42 20.5 L 46 16.5 L 45.5 15 Z M 48 35 L 46 39 L 48 39 L 48 35 Z M 40 36 L 38 40 L 40 40 L 40 36 Z M 46 40 Q 46 44 48 41 L 46 40 Z M 45 41 Q 42 43 45 44 Q 48 43 45 41 Z "></path></svg>
